<!-- Generated by IcoMoon.io -->
<svg version="1.1" xmlns="http://www.w3.org/2000/svg" viewBox="0 0 1024 1024">
<path d="M582.857 376.381l-38.857 103.619-38.857-103.619-73.143-24.381 73.143-24.381 38.857-103.619 38.857 103.619 73.143 24.381-73.143 24.381zM710.857 583.619l-38.857-103.619-38.857 103.619-73.143 24.381 73.143 24.381 38.857 103.619 38.857-103.619 73.143-24.381-73.143-24.381zM474.768 714.595v0c2.807-11.244 4.533-22.917 5.060-34.901-14.965 5.268-31.061 8.133-47.827 8.133-79.529 0-144-64.471-144-144 0-16.766 2.865-32.863 8.133-47.827-11.984 0.527-23.656 2.253-34.901 5.060-76.535 19.106-133.232 88.316-133.232 170.768 0 97.202 78.798 176 176 176 82.452 0 151.662-56.698 170.768-133.232zM160 671.827c0-62.763 40.153-116.148 96.173-135.867-0.115 2.608-0.173 5.231-0.173 7.867 0 97.202 78.798 176 176 176 2.636 0 5.259-0.058 7.867-0.173-19.719 56.019-73.104 96.173-135.867 96.173-79.529 0-144-64.471-144-144v0zM859.755 397.714l52.245 18.286-52.245 18.286-27.755 77.714-27.755-77.714-52.245-18.286 52.245-18.286 27.755-77.714 27.755 77.714z"></path>
</svg>
