<svg xmlns="http://www.w3.org/2000/svg" viewBox="0 0 32 32"><path fill="#09F" d="M0 0h32v32H0z"/><path fill="#00FFC4" d="M17.764 11.276l-1.09 2.907-1.09-2.907-2.053-.684 2.053-.685L16.674 7l1.09 2.907 2.053.685-2.053.684zm3.592 5.815l-1.09-2.908-1.09 2.908-2.053.684 2.053.684 1.09 2.908 1.09-2.908 2.052-.684-2.052-.684zm-6.625 3.675c.079-.315.127-.643.142-.98a4.041 4.041 0 0 1-5.155-5.155 4.94 4.94 0 1 0 5.013 6.134v.001zm-8.832-1.2c0-1.76 1.127-3.259 2.698-3.812a4.938 4.938 0 0 0 5.155 5.155A4.041 4.041 0 0 1 5.9 19.566zm19.635-7.691l1.466.513-1.466.512-.779 2.181-.778-2.18-1.467-.513 1.467-.513.778-2.181.779 2.18z"/></svg>