<?xml version="1.0" standalone="no"?>
<!DOCTYPE svg PUBLIC "-//W3C//DTD SVG 20010904//EN"
 "http://www.w3.org/TR/2001/REC-SVG-20010904/DTD/svg10.dtd">
<svg version="1.0" xmlns="http://www.w3.org/2000/svg"
 width="700.000000pt" height="700.000000pt" viewBox="0 0 700.000000 700.000000"
 preserveAspectRatio="xMidYMid meet">
<metadata>
Created by potrace 1.14, written by Peter Selinger 2001-2017
</metadata>
<g transform="translate(0.000000,700.000000) scale(0.100000,-0.100000)"
fill="#000000" stroke="none">
<path d="M510 6984 c-179 -38 -356 -178 -439 -344 -77 -157 -71 106 -71 -3140
0 -3246 -6 -2983 71 -3140 84 -169 261 -307 444 -345 106 -22 5864 -22 5970 0
240 50 450 260 500 500 22 106 22 5864 0 5970 -50 240 -260 450 -500 500 -103
21 -5875 21 -5975 -1z"/>
</g>
</svg>
