<?xml version="1.0" standalone="no"?>
<!DOCTYPE svg PUBLIC "-//W3C//DTD SVG 20010904//EN"
 "http://www.w3.org/TR/2001/REC-SVG-20010904/DTD/svg10.dtd">
<svg version="1.0" xmlns="http://www.w3.org/2000/svg"
 width="700.000000pt" height="700.000000pt" viewBox="0 0 700.000000 700.000000"
 preserveAspectRatio="xMidYMid meet">
<metadata>
Created by potrace 1.14, written by Peter Selinger 2001-2017
</metadata>
<g transform="translate(0.000000,700.000000) scale(0.100000,-0.100000)"
fill="#000000" stroke="none">
<path d="M0 3500 l0 -3500 3500 0 3500 0 0 3500 0 3500 -3500 0 -3500 0 0
-3500z m3769 1642 l116 -307 225 -76 225 -76 -224 -74 -225 -75 -112 -299
c-61 -165 -116 -306 -121 -314 -7 -10 -41 72 -123 290 -62 167 -117 309 -122
316 -5 6 -107 44 -226 84 l-217 72 221 74 222 74 118 314 c64 173 120 313 123
310 3 -3 57 -144 120 -313z m1737 -516 l78 -218 40 -17 c23 -10 92 -35 154
-56 61 -21 112 -41 112 -44 0 -4 -69 -31 -153 -60 l-153 -53 -21 -62 c-100
-286 -147 -406 -153 -395 -4 8 -43 114 -86 236 l-79 222 -152 53 c-84 29 -153
55 -153 58 0 3 69 29 153 58 l152 53 22 62 c101 289 147 407 153 396 5 -8 43
-112 86 -233z m-951 -1053 l117 -312 219 -73 c120 -40 215 -75 211 -79 -4 -4
-99 -37 -212 -74 -113 -37 -210 -73 -215 -80 -6 -7 -62 -151 -125 -319 -63
-168 -116 -304 -118 -302 -1 2 -55 144 -120 316 l-117 313 -212 71 c-116 39
-214 73 -217 76 -3 3 93 38 212 78 l218 72 113 308 c119 319 121 325 126 320
2 -2 56 -143 120 -315z m-2439 205 c-30 -111 -38 -189 -33 -312 6 -152 22
-217 82 -341 133 -276 374 -450 685 -496 112 -16 290 1 383 36 14 6 17 1 17
-28 0 -52 -27 -185 -54 -263 -169 -497 -676 -803 -1191 -719 -424 68 -770 382
-876 793 -162 630 268 1262 916 1345 73 10 78 8 71 -15z"/>
<path d="M1777 3507 c-156 -80 -271 -187 -360 -335 -268 -444 -93 -1022 378
-1247 148 -70 195 -80 385 -80 153 1 171 3 250 29 245 80 423 231 535 454 51
101 50 102 -44 102 -152 0 -315 44 -472 126 -328 174 -544 511 -566 887 -3 59
-10 107 -14 107 -5 0 -46 -19 -92 -43z"/>
</g>
</svg>
